<?xml version="1.0" encoding="UTF-8"?>
<svg version="1.1" xmlns="http://www.w3.org/2000/svg" width="1024" height="1024">
<path d="M0 0 C337.92 0 675.84 0 1024 0 C1024 337.92 1024 675.84 1024 1024 C686.08 1024 348.16 1024 0 1024 C0 686.08 0 348.16 0 0 Z " fill="#000000" transform="translate(0,0)"/>
<path d="M0 0 C0.99 0 1.98 0 3 0 C0.98386438 47.90060148 -11.70739109 96.73198459 -34.06933594 139.22412109 C-34.9298596 140.86615916 -35.766796 142.52050035 -36.6015625 144.17578125 C-46.91488649 164.16737234 -60.3321876 182.98333859 -75 200 C-75.58136719 200.68191406 -76.16273438 201.36382812 -76.76171875 202.06640625 C-81.01716139 207.00189541 -85.45835269 211.76642238 -89.91357422 216.52124023 C-92.16090887 218.93366001 -94.16668418 221.25002627 -96 224 C-93.64813672 226.21079684 -91.29308293 228.41816736 -88.9375 230.625 C-88.28072266 231.24246094 -87.62394531 231.85992188 -86.94726562 232.49609375 C-83.14868649 236.05141412 -79.29979555 239.48066695 -75.25219727 242.75146484 C-74.83897217 243.16348145 -74.42574707 243.57549805 -74 244 C-74 244.66 -74 245.32 -74 246 C-73.42765625 246.23460937 -72.8553125 246.46921875 -72.265625 246.7109375 C-69.47465293 248.29890437 -67.84327784 250.19288222 -65.75 252.625 C-62.92692716 255.84939201 -60.08210333 258.96018819 -57 261.9375 C-53.1484897 265.73583363 -49.77645095 269.82955776 -46.39453125 274.046875 C-44.37643171 276.53575469 -42.31039331 278.96958498 -40.21142578 281.39013672 C-29.19379285 294.14676031 -19.06455078 307.79337678 -10 322 C-8.90910094 323.68505562 -7.81792818 325.36993406 -6.7265625 327.0546875 C-0.19240863 337.18518599 6.12026155 347.36873758 11.87841797 357.95996094 C13.07442018 360.13536243 14.30225309 362.29062557 15.53515625 364.4453125 C26.56588029 383.86308313 35.60211547 404.20730911 44 424.875 C44.26754089 425.53278442 44.53508179 426.19056885 44.81072998 426.86828613 C55 452.00818205 55 452.00818205 55 457 C53.68 457 52.36 457 51 457 C49.20410156 454.97143555 49.20410156 454.97143555 47.390625 452.13671875 C46.71773437 451.10353516 46.04484375 450.07035156 45.3515625 449.00585938 C44.65804687 447.91080078 43.96453125 446.81574219 43.25 445.6875 C41.88257868 443.56487737 40.51279353 441.44377565 39.140625 439.32421875 C38.4604834 438.27202148 37.7803418 437.21982422 37.07958984 436.13574219 C33.87713899 431.3068764 30.45328173 426.65121126 27 422 C26.25492188 420.97648437 25.50984375 419.95296875 24.7421875 418.8984375 C19.71745441 412.10768943 14.41941841 405.58160493 9.02416992 399.08325195 C6.01344473 395.45538342 3.04223894 391.81558336 0.1875 388.0625 C-2.94123831 383.98016639 -6.35480976 380.19258223 -9.8203125 376.39453125 C-11.70157261 374.32784227 -13.5463115 372.23805393 -15.375 370.125 C-19.56981647 365.31159308 -23.89831583 360.62111932 -28.22924805 355.93041992 C-29.5969202 354.43942534 -30.95613404 352.94066932 -32.31176758 351.4387207 C-39.1250122 343.92408509 -46.16867432 336.6759513 -53.35327148 329.51635742 C-55.19958246 327.67545292 -57.04042273 325.82919728 -58.88085938 323.98242188 C-64.21203991 318.64823968 -69.5330906 313.36588137 -75.2800293 308.47485352 C-78.21582732 305.95744318 -80.99999335 303.27825451 -83.8125 300.625 C-88.88135512 295.8775878 -94.07684005 291.37841371 -99.5 287.03515625 C-101.84059046 285.12976933 -104.0806811 283.15579109 -106.3125 281.125 C-110.63455598 277.23669874 -115.15982986 273.6477369 -119.75683594 270.09326172 C-122.5402492 267.94106792 -125.2685757 265.77060643 -127.9453125 263.484375 C-128.80898438 262.74703125 -129.67265625 262.0096875 -130.5625 261.25 C-131.30628906 260.59515625 -132.05007813 259.9403125 -132.81640625 259.265625 C-134.93502726 257.78326635 -134.93502726 257.78326635 -137.46484375 258.0625 C-140.51230992 259.18945205 -142.47911401 260.6942775 -145 262.75 C-157.93553563 272.9010926 -172.59124057 281.07976569 -187.01757812 288.91845703 C-188.34304335 289.64158646 -189.66467231 290.37179084 -190.98242188 291.10888672 C-233.30665633 314.78159134 -280.58883582 330.65134565 -327.22949219 343.24755859 C-329.73301462 343.92748952 -332.23029035 344.62605262 -334.7265625 345.33203125 C-348.10301573 349.05767301 -361.70261483 351.63557496 -375.32714844 354.27685547 C-378.65365588 354.93180861 -381.97208202 355.61504407 -385.2890625 356.31640625 C-411.2574243 361.77651853 -437.61378413 365.28323398 -464 368 C-464.75899597 368.07905579 -465.51799194 368.15811157 -466.29998779 368.23956299 C-471.60572355 368.79186945 -476.91269011 369.33012274 -482.22119141 369.85519409 C-483.98169345 370.0300615 -485.74196578 370.2072636 -487.50195312 370.38723755 C-517.57357495 373.44485498 -547.75785072 373.21613838 -577.95068359 373.24023438 C-582.6073405 373.24458015 -587.26380807 373.25834557 -591.92041016 373.28125 C-617.22521091 373.40300969 -642.43014282 373.13359153 -667.6953125 371.609375 C-668.73749939 371.54662636 -669.77968628 371.48387772 -670.85345459 371.4192276 C-688.57254411 370.32658689 -706.1915725 368.584231 -723.81689453 366.48632812 C-730.80706765 365.6633515 -737.8104417 364.96310049 -744.8125 364.25 C-747.1940164 364.00526651 -749.57552749 363.76048142 -751.95703125 363.515625 C-753.63800696 363.34361432 -755.31899058 363.17168092 -757 363 C-757.33 361.35 -757.66 359.7 -758 358 C-757.1780867 357.98382629 -756.3561734 357.96765259 -755.50935364 357.95098877 C-713.56112621 357.11149458 -671.79634942 355.91111608 -630 352 C-628.26628354 351.84106398 -626.53255982 351.68220717 -624.79882812 351.5234375 C-578.08739453 347.19686117 -531.74294385 340.03200429 -485.75 330.875 C-484.68223328 330.6629895 -483.61446655 330.450979 -482.51434326 330.23254395 C-471.35881032 328.00940636 -460.27058553 325.67079675 -449.25488281 322.83105469 C-445.35386188 321.83502444 -441.44278066 321.00089886 -437.5 320.1875 C-427.15971768 317.96558325 -417.07785595 314.89758859 -406.95019531 311.87158203 C-403.34710811 310.80711486 -399.73184419 309.79041731 -396.11376953 308.77832031 C-350.87120298 296.08442509 -307.05349217 279.38243008 -264.46386719 259.60498047 C-261.61965163 258.28711515 -258.7700079 256.98355176 -255.9140625 255.69140625 C-244.28890817 250.39405294 -233.15544031 244.21390575 -222 238 C-220.52344689 237.18227471 -219.0468851 236.36456509 -217.5703125 235.546875 C-208.59685727 230.55602671 -199.77413562 225.33255656 -191 220 C-194.12560294 216.56721249 -197.58098816 214.24824116 -201.5625 211.9375 C-202.54271118 211.35995972 -202.54271118 211.35995972 -203.54272461 210.77075195 C-204.95639984 209.93985104 -206.37191465 209.1120736 -207.7890625 208.28710938 C-210.00905088 206.99473098 -212.22343944 205.69312741 -214.4375 204.390625 C-225.65476109 197.81878744 -237.01964906 191.53480122 -248.46484375 185.36962891 C-250.71130809 184.15596703 -252.95046305 182.93013204 -255.1875 181.69921875 C-267.43484997 175.01912095 -280.11815226 169.24935605 -292.8046875 163.46166992 C-294.78280053 162.55679807 -296.75750293 161.64437788 -298.7265625 160.7199707 C-306.74880229 156.98131273 -314.97995303 153.8247574 -323.25 150.6875 C-324.00110046 150.40176117 -324.75220093 150.11602234 -325.52606201 149.82162476 C-392.60394133 124.32506352 -462.22548802 106.36283965 -533.98779297 101.27783203 C-537.02785467 100.99743081 -539.99597954 100.53918316 -543 100 C-543 99.01 -543 98.02 -543 97 C-510.87045514 86.29015171 -465.54295135 91.85272202 -432.1328125 94.5625 C-426.74284237 94.9916858 -421.40466251 95.11008082 -416 95 C-415.75878418 94.19071045 -415.51756836 93.3814209 -415.26904297 92.54760742 C-414.34202867 89.44014792 -413.4136206 86.33311104 -412.484375 83.22631836 C-412.08833932 81.90128071 -411.69280349 80.57609351 -411.29785156 79.25073242 C-407.9824644 68.12718345 -404.49604327 57.07080368 -401 46 C-383.18 46 -365.36 46 -347 46 C-350.37252862 59.49011446 -350.37252862 59.49011446 -351.8671875 64.26171875 C-352.19332031 65.31037109 -352.51945312 66.35902344 -352.85546875 67.43945312 C-353.19191406 68.51130859 -353.52835937 69.58316406 -353.875 70.6875 C-354.58146689 72.96201057 -355.2871946 75.23675087 -355.9921875 77.51171875 C-356.3334668 78.61177246 -356.67474609 79.71182617 -357.02636719 80.84521484 C-358.37727127 85.22244217 -359.69989856 89.60743836 -361 94 C-361.20737793 94.69311279 -361.41475586 95.38622559 -361.62841797 96.1003418 C-362.65868241 99.49296506 -362.65868241 99.49296506 -363 103 C-362.46036621 103.08451416 -361.92073242 103.16902832 -361.36474609 103.25610352 C-335.78309574 107.32942782 -310.75488767 113.40346858 -286 121 C-284.9800293 121.30663574 -283.96005859 121.61327148 -282.90917969 121.92919922 C-264.30232138 127.56059096 -245.96096464 134.20473766 -228.16943359 142.04541016 C-225.98916082 143.00476943 -223.80197864 143.94676051 -221.61328125 144.88671875 C-200.19192913 154.15832908 -179.21360304 164.77162809 -159.6015625 177.4609375 C-158.73362061 178.02176025 -157.86567871 178.58258301 -156.97143555 179.16040039 C-155.31868141 180.23797889 -153.67382917 181.3278049 -152.03833008 182.43139648 C-151.30251709 182.91423096 -150.5667041 183.39706543 -149.80859375 183.89453125 C-149.16720459 184.32612549 -148.52581543 184.75771973 -147.86499023 185.20239258 C-145.47859539 186.22299108 -144.39178289 185.91092028 -142 185 C-139.8308546 183.56306932 -139.8308546 183.56306932 -137.625 181.6875 C-136.74714844 180.96433594 -135.86929688 180.24117187 -134.96484375 179.49609375 C-133.98644531 178.67238281 -133.00804687 177.84867188 -132 177 C-131.19780029 176.32735107 -131.19780029 176.32735107 -130.37939453 175.64111328 C-117.57966508 164.88519368 -105.46344344 153.55075075 -93.625 141.75 C-93.15046387 141.2781427 -92.67592773 140.8062854 -92.18701172 140.32012939 C-86.5663488 134.7235592 -81.13417759 129.04588508 -76 123 C-75.11128322 121.97863893 -74.22199838 120.95777175 -73.33203125 119.9375 C-66.1583849 111.57380689 -59.48437594 102.90688032 -53 94 C-52.5035498 93.31921387 -52.00709961 92.63842773 -51.49560547 91.93701172 C-30.71155584 63.30226279 -14.13184862 32.40453671 0 0 Z " fill="#FBFBFB" transform="translate(856,281)"/>
<path d="M0 0 C17.82 0 35.64 0 54 0 C49.4955036 19.14410971 49.4955036 19.14410971 46.625 27.625 C42.51136111 40.1379931 38.74693005 52.748359 35 65.375 C34.69417999 66.40490051 34.38835999 67.43480103 34.07327271 68.49591064 C32.04475142 75.32939654 30.02128799 82.16437153 28 89 C27.56658843 90.46517502 27.13315924 91.93034482 26.69970703 93.39550781 C26.32571777 94.65975586 25.95172852 95.92400391 25.56640625 97.2265625 C24.89849386 99.48439167 24.2305296 101.7422055 23.5625 104 C23.25675049 105.03350586 22.95100098 106.06701172 22.63598633 107.13183594 C20.51101345 114.30369194 18.35993906 121.46737894 16.1875 128.625 C15.90914307 129.54410156 15.63078613 130.46320313 15.34399414 131.41015625 C15.07965576 132.27769531 14.81531738 133.14523437 14.54296875 134.0390625 C14.31633545 134.78365723 14.08970215 135.52825195 13.85620117 136.29541016 C12.61641622 140.21167411 11.29900693 144.1029792 10 148 C-7.49 148 -24.98 148 -43 148 C-42.29947234 142.39577873 -41.59207402 138.09243547 -39.9609375 132.84375 C-39.75957687 132.18835739 -39.55821625 131.53296478 -39.35075378 130.85771179 C-38.92080654 129.46067907 -38.48791458 128.06454966 -38.05227661 126.66928101 C-37.12671711 123.70476309 -36.21550224 120.73589767 -35.30366516 117.76713562 C-34.84398112 116.27059456 -34.38360473 114.77426599 -33.92253113 113.27815247 C-32.07202721 107.26597328 -30.30012241 101.23326829 -28.5625 95.1875 C-25.42093017 84.30128585 -22.10077574 73.47205628 -18.77578735 62.64086914 C-15.8708041 53.17408916 -13.00338066 43.69976104 -10.25 34.1875 C-6.9310961 22.76281158 -3.46394998 11.38154994 0 0 Z " fill="#FCFCFC" transform="translate(264,327)"/>
<path d="M0 0 C22.22930865 1.38371251 44.17115747 4.62030878 66.16625977 8.02514648 C67.46853516 8.22479004 68.77081055 8.42443359 70.11254883 8.63012695 C85.46314763 11.03146958 100.55284856 14.39294302 115.66625977 17.96264648 C116.53959961 18.1678894 117.41293945 18.37313232 118.31274414 18.58459473 C134.16268849 22.3295179 149.73770799 26.80876517 165.16625977 32.02514648 C163.13778484 41.51033917 160.53212142 50.71896002 157.60375977 59.96264648 C157.20033149 61.24962005 156.79733513 62.5367291 156.39477539 63.82397461 C154.69515878 69.24061587 152.96160511 74.63911045 151.16625977 80.02514648 C133.34625977 80.02514648 115.52625977 80.02514648 97.16625977 80.02514648 C98.37481588 74.58664398 99.55572898 69.43751926 101.15454102 64.14624023 C101.5315918 62.89391602 101.90864258 61.6415918 102.29711914 60.35131836 C102.69098617 59.0550904 103.08486639 57.75886644 103.47875977 56.46264648 C104.04626953 54.57835937 104.04626953 54.57835937 104.62524414 52.65600586 C107.41262864 43.42603723 110.29016381 34.22865353 113.16625977 25.02514648 C72.90625977 25.02514648 32.64625977 25.02514648 -8.83374023 25.02514648 C-7.7074742 17.14128423 -7.7074742 17.14128423 -6.67749023 13.65795898 C-6.45963867 12.91803711 -6.24178711 12.17811523 -6.01733398 11.41577148 C-5.79174805 10.66811523 -5.56616211 9.92045898 -5.33374023 9.15014648 C-5.1081543 8.37928711 -4.88256836 7.60842773 -4.65014648 6.81420898 C-2.63342418 0.03611273 -2.63342418 0.03611273 0 0 Z " fill="#FBFBFB" transform="translate(313.833740234375,394.974853515625)"/>
<path d="M0 0 C2.17515859 3.26273789 3.31011941 6.30910713 4.625 10 C5.07101562 11.2375 5.51703125 12.475 5.9765625 13.75 C7 17 7 17 7 20 C5.68 20 4.36 20 3 20 C1.53613281 18.43945312 1.53613281 18.43945312 0.203125 16.28125 C-0.28027344 15.51425781 -0.76367188 14.74726562 -1.26171875 13.95703125 C-1.99841797 12.74080078 -1.99841797 12.74080078 -2.75 11.5 C-3.25660156 10.68917969 -3.76320313 9.87835937 -4.28515625 9.04296875 C-5.5364274 7.03621313 -6.77380729 5.02214236 -8 3 C-7.01 3 -6.02 3 -5 3 C-4.01 2.67 -3.02 2.34 -2 2 C-1.67 2.33 -1.34 2.66 -1 3 C-0.67 2.01 -0.34 1.02 0 0 Z " fill="#E9E9E9" transform="translate(904,718)"/>
<path d="M0 0 C1.9451 2.91765 2.45276317 4.62537285 3 8 C0.66785852 9.20628008 -1.49642139 10.1654738 -4 11 C-4.680625 11.7115625 -4.680625 11.7115625 -5.375 12.4375 C-7.38576214 14.37092514 -9.39052205 15.0831564 -12 16 C-8 10.66666667 -4 5.33333333 0 0 Z " fill="#F7F7F7" transform="translate(804,374)"/>
<path d="M0 0 C0.58996513 0.72912346 0.58996513 0.72912346 1.19184875 1.47297668 C3.54792045 3.46273082 4.87175828 3.39385086 7.93041992 3.43237305 C8.93123093 3.45216721 9.93204193 3.47196136 10.96318054 3.49235535 C12.5804882 3.50194023 12.5804882 3.50194023 14.23046875 3.51171875 C15.33602615 3.52966995 16.44158356 3.54762115 17.5806427 3.56611633 C21.11622285 3.62035427 24.65166696 3.65415892 28.1875 3.6875 C30.58270128 3.72066109 32.97788457 3.7551496 35.37304688 3.79101562 C41.24857594 3.87608846 47.12412232 3.94438118 53 4 C53 4.33 53 4.66 53 5 C35.51 5 18.02 5 0 5 C0 3.35 0 1.7 0 0 Z " fill="#E8E8E8" transform="translate(221,470)"/>
<path d="M0 0 C7.92 0 15.84 0 24 0 C24 0.33 24 0.66 24 1 C18.06 1 12.12 1 6 1 C6 1.66 6 2.32 6 3 C6.66 3.33 7.32 3.66 8 4 C5.69 4.33 3.38 4.66 1 5 C0.67 3.35 0.34 1.7 0 0 Z " fill="#DFDFDF" transform="translate(98,639)"/>
<path d="M0 0 C2.31 0.33 4.62 0.66 7 1 C5.6302836 4.99500618 3.74277578 7.80009492 1 11 C-1.30441554 7.54337669 -1.25860135 6.05142119 -1 2 C-0.67 1.34 -0.34 0.68 0 0 Z " fill="#EFEFEF" transform="translate(802,440)"/>
<path d="M0 0 C0.99 0.66 1.98 1.32 3 2 C0.69 4.97 -1.62 7.94 -4 11 C-4.99 10.67 -5.98 10.34 -7 10 C-6.690625 9.4225 -6.38125 8.845 -6.0625 8.25 C-4.91850217 6.08319538 -4.91850217 6.08319538 -4.625 3.875 C-4 2 -4 2 -1.9375 0.75 C-1.298125 0.5025 -0.65875 0.255 0 0 Z " fill="#F0F0F0" transform="translate(790,464)"/>
<path d="M0 0 C-0.33 0.99 -0.66 1.98 -1 3 C0.65 3.33 2.3 3.66 4 4 C4 4.33 4 4.66 4 5 C-0.29 4.67 -4.58 4.34 -9 4 C-9 3.01 -9 2.02 -9 1 C-5.8035914 -0.06546953 -3.34252724 -0.07427838 0 0 Z " fill="#D2D2D2" transform="translate(322,377)"/>
<path d="M0 0 C0.66 0.33 1.32 0.66 2 1 C0.875 3.4375 0.875 3.4375 -1 6 C-4.125 6.6875 -4.125 6.6875 -7 7 C-7.33 7.66 -7.66 8.32 -8 9 C-9.32 8.34 -10.64 7.68 -12 7 C-10.04754815 5.80285445 -8.08785003 4.61751926 -6.125 3.4375 C-5.03445313 2.77621094 -3.94390625 2.11492187 -2.8203125 1.43359375 C-1.88960937 0.96050781 -0.95890625 0.48742187 0 0 Z " fill="#E6E6E6" transform="translate(663,502)"/>
<path d="M0 0 C1.32 0.66 2.64 1.32 4 2 C1.45543849 4.96865509 -1.48994665 6.3619751 -5 8 C-5 6.68 -5 5.36 -5 4 C-2.5 1.75 -2.5 1.75 0 0 Z " fill="#121212" transform="translate(662,498)"/>
<path d="M0 0 C0.80824219 0.11085938 1.61648438 0.22171875 2.44921875 0.3359375 C3.37154297 0.47902344 3.37154297 0.47902344 4.3125 0.625 C1.3125 2.625 1.3125 2.625 -2.6875 2.625 C-2.6875 3.285 -2.6875 3.945 -2.6875 4.625 C-4.3375 4.625 -5.9875 4.625 -7.6875 4.625 C-7.6875 3.635 -7.6875 2.645 -7.6875 1.625 C-4.33422361 -0.61051759 -3.78006343 -0.54783528 0 0 Z " fill="#EFEFEF" transform="translate(501.6875,385.375)"/>
<path d="M0 0 C0.99 0.33 1.98 0.66 3 1 C3.33 2.98 3.66 4.96 4 7 C2.68 7 1.36 7 0 7 C-0.66 5.35 -1.32 3.7 -2 2 C-1.34 1.34 -0.68 0.68 0 0 Z " fill="#E1E1E1" transform="translate(907,731)"/>
<path d="M0 0 C2.64 1.98 5.28 3.96 8 6 C6.68 7.32 5.36 8.64 4 10 C0.80504114 6.30582882 0 4.82584828 0 0 Z " fill="#181818" transform="translate(749,561)"/>
<path d="M0 0 C-0.33 1.65 -0.66 3.3 -1 5 C-6.75 3.25 -6.75 3.25 -9 1 C-3.375 -1.125 -3.375 -1.125 0 0 Z " fill="#E4E4E4" transform="translate(604,458)"/>
<path d="M0 0 C4.875 4.625 4.875 4.625 6 8 C5.01 8.495 5.01 8.495 4 9 C1.4375 6.75 1.4375 6.75 -1 4 C-0.8125 1.6875 -0.8125 1.6875 0 0 Z " fill="#E7E7E7" transform="translate(825,575)"/>
<path d="M0 0 C2.1875 0.3125 2.1875 0.3125 4 1 C3.01 3.31 2.02 5.62 1 8 C-0.32 6.35 -1.64 4.7 -3 3 C-1.75 1.4375 -1.75 1.4375 0 0 Z " fill="#111111" transform="translate(819,560)"/>
<path d="M0 0 C-3.1254959 2.64465038 -6.08788267 3.84414715 -10 5 C-10 4.01 -10 3.02 -10 2 C-6.42454167 -0.86036666 -4.36137826 -1.37071888 0 0 Z " fill="#171717" transform="translate(610,532)"/>
<path d="M0 0 C0 1.32 0 2.64 0 4 C-2.8125 5.125 -2.8125 5.125 -6 6 C-6.99 5.34 -7.98 4.68 -9 4 C-2.25 0 -2.25 0 0 0 Z " fill="#171717" transform="translate(685,561)"/>
<path d="M0 0 C0.66 0.66 1.32 1.32 2 2 C0.35 3.98 -1.3 5.96 -3 8 C-3.66 7.01 -4.32 6.02 -5 5 C-3.35 3.35 -1.7 1.7 0 0 Z " fill="#151515" transform="translate(773,408)"/>
<path d="M0 0 C4.39158329 1.4638611 4.87947433 3.97831338 7 8 C6.01 8 5.02 8 4 8 C0 2.74285714 0 2.74285714 0 0 Z " fill="#E1E1E1" transform="translate(837,593)"/>
<path d="M0 0 C2.64 0.66 5.28 1.32 8 2 C7.01 2.99 6.02 3.98 5 5 C2.525 4.01 2.525 4.01 0 3 C0 2.01 0 1.02 0 0 Z " fill="#E9E9E9" transform="translate(587,408)"/>
<path d="M0 0 C2.5 2.3125 2.5 2.3125 5 5 C5 5.99 5 6.98 5 8 C4.34 8 3.68 8 3 8 C2.34 6.35 1.68 4.7 1 3 C0.34 3 -0.32 3 -1 3 C-0.67 2.01 -0.34 1.02 0 0 Z " fill="#171717" transform="translate(842,652)"/>
<path d="M0 0 C0.66 1.32 1.32 2.64 2 4 C0.35 5.32 -1.3 6.64 -3 8 C-3.66 7.34 -4.32 6.68 -5 6 C-3.35 4.02 -1.7 2.04 0 0 Z " fill="#E1E1E1" transform="translate(804,374)"/>
<path d="M0 0 C0.99 0.33 1.98 0.66 3 1 C1.02 3.31 -0.96 5.62 -3 8 C-3.33 7.34 -3.66 6.68 -4 6 C-2.68 4.02 -1.36 2.04 0 0 Z " fill="#E5E5E5" transform="translate(826,341)"/>
<path d="M0 0 C0.99 0.33 1.98 0.66 3 1 C-1.5 5 -1.5 5 -6 5 C-4.59240479 2.18480957 -2.77416723 1.38708362 0 0 Z " fill="#E2E2E2" transform="translate(717,536)"/>
<path d="M0 0 C0.33 0.99 0.66 1.98 1 3 C0.01 3.495 0.01 3.495 -1 4 C-1 5.32 -1 6.64 -1 8 C-3.475 7.01 -3.475 7.01 -6 6 C-4 4 -2 2 0 0 Z " fill="#EBEBEB" transform="translate(747,438)"/>
<path d="M0 0 C0.66 0 1.32 0 2 0 C1.67 1.65 1.34 3.3 1 5 C-0.98 5.66 -2.96 6.32 -5 7 C-4.21654285 5.82780457 -3.42297164 4.66236332 -2.625 3.5 C-2.18414063 2.8503125 -1.74328125 2.200625 -1.2890625 1.53125 C-0.65097656 0.77328125 -0.65097656 0.77328125 0 0 Z " fill="#DADADA" transform="translate(797,383)"/>
<path d="M0 0 C0.99 0 1.98 0 3 0 C3 2.31 3 4.62 3 7 C2.67 5.68 2.34 4.36 2 3 C1.34 3 0.68 3 0 3 C-0.33 3.99 -0.66 4.98 -1 6 C-1.33 5.34 -1.66 4.68 -2 4 C-1.0625 1.875 -1.0625 1.875 0 0 Z " fill="#B9B9B9" transform="translate(856,281)"/>
<path d="M0 0 C3.465 1.485 3.465 1.485 7 3 C6.67 3.66 6.34 4.32 6 5 C3.03 4.505 3.03 4.505 0 4 C0 2.68 0 1.36 0 0 Z " fill="#E7E7E7" transform="translate(681,450)"/>
<path d="M0 0 C0.33 0.66 0.66 1.32 1 2 C1.66 2 2.32 2 3 2 C3 2.66 3 3.32 3 4 C2.34 4 1.68 4 1 4 C0.67 5.32 0.34 6.64 0 8 C-0.66 8 -1.32 8 -2 8 C-1.34 5.36 -0.68 2.72 0 0 Z " fill="#DEDEDE" transform="translate(452,336)"/>
<path d="M0 0 C0 0.66 0 1.32 0 2 C-1.98 2.99 -1.98 2.99 -4 4 C-4 3.34 -4 2.68 -4 2 C-4.66 2 -5.32 2 -6 2 C-6 1.34 -6 0.68 -6 0 C-3 -1 -3 -1 0 0 Z " fill="#101010" transform="translate(888,708)"/>
<path d="M0 0 C0.99 0.33 1.98 0.66 3 1 C3 1.66 3 2.32 3 3 C2.34 3 1.68 3 1 3 C1 3.66 1 4.32 1 5 C-0.32 5 -1.64 5 -3 5 C-1.125 1.125 -1.125 1.125 0 0 Z " fill="#EEEEEE" transform="translate(724,458)"/>
</svg>
